<?xml version="1.0" encoding="UTF-8" standalone="no"?>
<!DOCTYPE svg PUBLIC "-//W3C//DTD SVG 1.1//EN" "http://www.w3.org/Graphics/SVG/1.1/DTD/svg11.dtd">
<svg width="100%" height="100%" viewBox="0 0 2048 1536" version="1.1" xmlns="http://www.w3.org/2000/svg" xmlns:xlink="http://www.w3.org/1999/xlink" xml:space="preserve" xmlns:serif="http://www.serif.com/" style="fill-rule:evenodd;clip-rule:evenodd;stroke-linejoin:round;stroke-miterlimit:2;">
    <rect id="Artboard1" x="0" y="0" width="2048" height="1536" style="fill:none;"/>
    <g id="Artboard11" serif:id="Artboard1">
        <g transform="matrix(1,0,0,1,-221.552,234.796)">
            <path d="M557.841,103.361L504.825,103.361C500.888,115.736 496.646,126.47 492.099,135.564C487.552,144.658 482.513,152.205 476.982,158.205C471.45,164.205 465.38,168.658 458.771,171.564C452.161,174.47 444.778,175.924 436.622,175.924C432.122,175.924 427.786,175.525 423.614,174.728C419.442,173.931 415.763,172.83 412.575,171.424C409.388,170.017 406.833,168.353 404.911,166.431C402.989,164.509 402.028,162.424 402.028,160.174C402.028,158.486 402.286,156.775 402.802,155.041C403.317,153.306 404.044,151.713 404.982,150.259C405.919,148.806 407.067,147.634 408.427,146.744C409.786,145.853 411.31,145.408 412.997,145.408C414.497,145.408 415.81,146.439 416.935,148.502C418.06,150.564 419.489,152.838 421.224,155.322C422.958,157.806 425.185,160.08 427.903,162.142C430.622,164.205 434.372,165.236 439.153,165.236C444.028,165.236 448.669,164.064 453.075,161.72C457.482,159.377 461.724,155.697 465.802,150.681C469.88,145.666 473.794,139.267 477.544,131.486C481.294,123.705 484.95,114.33 488.513,103.361L455.325,103.361L455.325,90.986L492.169,90.986C495.263,80.486 498.286,69.892 501.239,59.205C504.192,48.517 506.982,38.252 509.607,28.408C512.232,18.564 514.575,9.353 516.638,0.775C518.7,-7.803 520.435,-15.28 521.841,-21.655C519.966,-26.905 517.411,-30.42 514.177,-32.201C510.942,-33.983 506.607,-34.873 501.169,-34.873C496.107,-34.873 490.88,-34.1 485.489,-32.553C480.099,-31.006 475.2,-28.803 470.794,-25.944C466.388,-23.084 462.755,-19.569 459.896,-15.397C457.036,-11.225 455.607,-6.561 455.607,-1.405C455.607,1.595 456.005,3.986 456.802,5.767C457.599,7.549 458.536,8.884 459.614,9.775C460.692,10.666 461.747,11.228 462.778,11.463C463.81,11.697 464.607,11.814 465.169,11.814C467.419,11.814 469.317,11.416 470.864,10.619C472.411,9.822 473.771,8.978 474.942,8.088C476.114,7.197 477.263,6.353 478.388,5.556C479.513,4.759 480.778,4.361 482.185,4.361C483.216,4.361 484.364,4.619 485.63,5.134C486.896,5.65 488.067,6.47 489.146,7.595C490.224,8.72 491.138,10.197 491.888,12.025C492.638,13.853 493.013,16.08 493.013,18.705C493.013,22.455 492.286,25.689 490.833,28.408C489.38,31.127 487.505,33.4 485.208,35.228C482.911,37.056 480.286,38.416 477.333,39.306C474.38,40.197 471.45,40.642 468.544,40.642C464.044,40.642 459.989,39.822 456.38,38.181C452.771,36.541 449.7,34.314 447.169,31.502C444.638,28.689 442.716,25.408 441.403,21.658C440.091,17.908 439.435,13.97 439.435,9.845C439.435,3.658 440.466,-2.037 442.528,-7.241C444.591,-12.444 447.45,-17.178 451.107,-21.444C454.763,-25.709 459.075,-29.459 464.044,-32.694C469.013,-35.928 474.38,-38.647 480.146,-40.85C485.911,-43.053 491.935,-44.717 498.216,-45.842C504.497,-46.967 510.825,-47.53 517.2,-47.53C526.2,-47.53 533.817,-46.803 540.052,-45.35C546.286,-43.897 551.513,-41.741 555.732,-38.881C559.95,-36.022 563.349,-32.412 565.927,-28.053C568.505,-23.694 570.638,-18.655 572.325,-12.936L602.56,90.986L633.075,90.986L633.075,103.361L605.935,103.361L616.903,140.205C617.278,141.611 617.653,142.924 618.028,144.142C618.403,145.361 618.849,146.416 619.364,147.306C619.88,148.197 620.536,148.924 621.333,149.486C622.13,150.049 623.138,150.33 624.357,150.33C626.982,150.33 629.419,149.884 631.669,148.994C633.919,148.103 635.888,147.189 637.575,146.252L639.966,151.455C638.278,152.674 636.146,154.056 633.567,155.603C630.989,157.15 628.036,158.627 624.708,160.033C621.38,161.439 617.7,162.611 613.669,163.549C609.638,164.486 605.325,164.955 600.732,164.955C594.357,164.955 589.224,164.158 585.333,162.564C581.442,160.97 578.396,159.002 576.192,156.658C573.989,154.314 572.396,151.83 571.411,149.205C570.427,146.58 569.653,144.283 569.091,142.314L557.841,103.361ZM530.56,8.299C526.716,23.955 522.989,38.674 519.38,52.455C515.771,66.236 512.185,79.08 508.622,90.986L554.466,90.986L530.56,8.299Z" style="fill-rule:nonzero;"/>
            <path d="M746.841,65.392C743.935,65.392 741.497,64.947 739.528,64.056C737.56,63.166 735.966,61.97 734.747,60.47C733.528,58.97 732.638,57.306 732.075,55.478C731.513,53.65 731.232,51.752 731.232,49.783C731.232,47.252 731.396,44.814 731.724,42.47C732.052,40.127 732.099,38.017 731.864,36.142C731.63,34.267 730.903,32.767 729.685,31.642C728.466,30.517 726.31,29.955 723.216,29.955C719.935,29.955 716.466,30.892 712.81,32.767C709.153,34.642 705.825,37.595 702.825,41.627C699.825,45.658 697.341,50.838 695.372,57.166C693.403,63.494 692.419,71.111 692.419,80.017C692.419,89.861 693.333,98.838 695.161,106.947C696.989,115.056 699.732,121.97 703.388,127.689C707.044,133.408 711.591,137.838 717.028,140.978C722.466,144.119 728.841,145.689 736.153,145.689C739.435,145.689 742.552,145.314 745.505,144.564C748.458,143.814 751.247,142.783 753.872,141.47C756.497,140.158 759.005,138.634 761.396,136.9C763.786,135.166 766.107,133.314 768.357,131.345L771.872,134.72C769.716,137.627 766.95,140.814 763.575,144.283C760.2,147.752 756.122,151.009 751.341,154.056C746.56,157.103 740.982,159.634 734.607,161.65C728.232,163.666 720.966,164.674 712.81,164.674C704.653,164.674 696.708,163.103 688.974,159.963C681.239,156.822 674.372,152.252 668.372,146.252C662.372,140.252 657.567,132.963 653.958,124.384C650.349,115.806 648.544,106.033 648.544,95.064C648.544,86.533 649.622,78.681 651.778,71.509C653.935,64.338 656.864,57.845 660.567,52.033C664.271,46.22 668.583,41.111 673.505,36.705C678.427,32.299 683.607,28.619 689.044,25.666C694.482,22.713 700.036,20.486 705.708,18.986C711.38,17.486 716.841,16.736 722.091,16.736C729.028,16.736 735.075,17.533 740.232,19.127C745.388,20.72 749.677,22.83 753.099,25.455C756.521,28.08 759.075,31.103 760.763,34.525C762.45,37.947 763.294,41.486 763.294,45.142C763.294,47.861 762.942,50.463 762.239,52.947C761.536,55.431 760.505,57.588 759.146,59.416C757.786,61.244 756.075,62.697 754.013,63.775C751.95,64.853 749.56,65.392 746.841,65.392Z" style="fill-rule:nonzero;"/>
            <path d="M827.138,98.158C827.138,101.158 827.583,104.416 828.474,107.931C829.364,111.447 830.653,114.986 832.341,118.549C834.028,122.111 836.114,125.509 838.599,128.744C841.083,131.978 843.942,134.861 847.177,137.392C850.411,139.924 853.997,141.939 857.935,143.439C861.872,144.939 866.185,145.689 870.872,145.689C874.153,145.689 877.2,145.314 880.013,144.564C882.825,143.814 885.45,142.783 887.888,141.47C890.325,140.158 892.669,138.634 894.919,136.9C897.169,135.166 899.419,133.314 901.669,131.345L905.185,134.72C903.028,137.627 900.263,140.814 896.888,144.283C893.513,147.752 889.435,151.009 884.653,154.056C879.872,157.103 874.294,159.634 867.919,161.65C861.544,163.666 854.278,164.674 846.122,164.674C837.966,164.674 830.021,163.197 822.286,160.244C814.552,157.291 807.685,152.861 801.685,146.955C795.685,141.049 790.88,133.689 787.271,124.877C783.661,116.064 781.857,105.752 781.857,93.939C781.857,85.408 782.935,77.58 785.091,70.455C787.247,63.33 790.177,56.908 793.88,51.189C797.583,45.47 801.896,40.455 806.817,36.142C811.739,31.83 816.919,28.244 822.357,25.384C827.794,22.525 833.349,20.369 839.021,18.916C844.692,17.463 850.153,16.736 855.403,16.736C862.341,16.736 868.388,17.486 873.544,18.986C878.7,20.486 882.989,22.502 886.411,25.033C889.833,27.564 892.388,30.494 894.075,33.822C895.763,37.15 896.607,40.642 896.607,44.299C896.607,48.705 895.341,52.666 892.81,56.181C890.278,59.697 886.903,62.767 882.685,65.392L827.138,98.158ZM855.403,69.611C856.622,68.861 857.63,68.134 858.427,67.431C859.224,66.728 859.857,65.884 860.325,64.9C860.794,63.916 861.146,62.697 861.38,61.244C861.614,59.791 861.732,57.986 861.732,55.83C861.732,53.486 861.474,50.884 860.958,48.025C860.442,45.166 859.575,42.47 858.357,39.939C857.138,37.408 855.591,35.299 853.716,33.611C851.841,31.924 849.591,31.08 846.966,31.08C843.591,31.08 840.708,32.088 838.317,34.103C835.927,36.119 833.958,38.72 832.411,41.908C830.864,45.095 829.646,48.728 828.755,52.806C827.864,56.884 827.185,60.986 826.716,65.111C826.247,69.236 825.966,73.197 825.872,76.994C825.778,80.791 825.732,84.002 825.732,86.627L855.403,69.611Z" style="fill-rule:nonzero;"/>
            <path d="M979.997,90.705C979.997,78.424 981.778,67.666 985.341,58.431C988.903,49.197 993.661,41.486 999.614,35.299C1005.57,29.111 1012.48,24.47 1020.36,21.377C1028.23,18.283 1036.48,16.736 1045.11,16.736C1053.73,16.736 1061.98,18.166 1069.86,21.025C1077.73,23.884 1084.65,28.267 1090.6,34.174C1096.55,40.08 1101.31,47.556 1104.87,56.603C1108.43,65.65 1110.22,76.361 1110.22,88.736C1110.22,101.017 1108.43,111.892 1104.87,121.361C1101.31,130.83 1096.55,138.799 1090.6,145.267C1084.65,151.736 1077.73,156.634 1069.86,159.963C1061.98,163.291 1053.73,164.955 1045.11,164.955C1036.48,164.955 1028.23,163.384 1020.36,160.244C1012.48,157.103 1005.57,152.439 999.614,146.252C993.661,140.064 988.903,132.33 985.341,123.049C981.778,113.767 979.997,102.986 979.997,90.705ZM1066.48,89.299C1066.48,81.799 1066.22,74.556 1065.71,67.572C1065.19,60.588 1064.18,54.377 1062.68,48.939C1061.18,43.502 1059.03,39.166 1056.22,35.931C1053.4,32.697 1049.7,31.08 1045.11,31.08C1040.51,31.08 1036.81,32.791 1034,36.213C1031.18,39.634 1029.03,44.134 1027.53,49.713C1026.03,55.291 1025.04,61.642 1024.58,68.767C1024.11,75.892 1023.87,83.205 1023.87,90.705C1023.87,98.205 1024.11,105.541 1024.58,112.713C1025.04,119.884 1026.03,126.283 1027.53,131.908C1029.03,137.533 1031.18,142.056 1034,145.478C1036.81,148.9 1040.51,150.611 1045.11,150.611C1049.7,150.611 1053.4,148.83 1056.22,145.267C1059.03,141.705 1061.18,137.017 1062.68,131.205C1064.18,125.392 1065.19,118.83 1065.71,111.517C1066.22,104.205 1066.48,96.799 1066.48,89.299Z" style="fill-rule:nonzero;"/>
            <path d="M1205.84,-46.405C1203.22,-46.405 1200.73,-45.842 1198.39,-44.717C1196.04,-43.592 1194.01,-41.787 1192.27,-39.303C1190.54,-36.819 1189.15,-33.655 1188.12,-29.811C1187.09,-25.967 1186.58,-21.326 1186.58,-15.889L1186.58,18.705L1217.37,18.705L1217.37,28.83L1186.58,28.83L1186.58,139.642C1186.58,152.392 1184.91,164.158 1181.58,174.939C1178.26,185.72 1173.22,195.025 1166.47,202.853C1159.72,210.681 1151.28,216.799 1141.15,221.205C1131.03,225.611 1119.22,227.814 1105.72,227.814C1100.93,227.814 1096.34,227.416 1091.93,226.619C1087.53,225.822 1083.64,224.72 1080.26,223.314C1076.89,221.908 1074.19,220.244 1072.18,218.322C1070.16,216.4 1069.15,214.267 1069.15,211.924C1069.15,210.236 1069.39,208.525 1069.86,206.791C1070.33,205.056 1071.03,203.486 1071.97,202.08C1072.9,200.674 1074.05,199.525 1075.41,198.634C1076.77,197.744 1078.34,197.299 1080.12,197.299C1081.15,197.299 1082.07,197.814 1082.86,198.845C1083.66,199.877 1084.48,201.142 1085.33,202.642C1086.17,204.142 1087.13,205.806 1088.21,207.634C1089.29,209.463 1090.67,211.127 1092.36,212.627C1094.04,214.127 1096.13,215.392 1098.61,216.424C1101.1,217.455 1104.12,217.97 1107.68,217.97C1112.47,217.97 1116.68,217.009 1120.34,215.088C1124,213.166 1127.14,210.517 1129.76,207.142C1132.39,203.767 1134.59,199.783 1136.37,195.189C1138.15,190.595 1139.56,185.674 1140.59,180.424C1141.62,175.174 1142.35,169.689 1142.77,163.97C1143.19,158.252 1143.4,152.533 1143.4,146.814L1143.4,28.83L1117.53,28.83L1117.53,18.705L1143.4,18.705L1143.4,2.252C1143.4,-5.998 1144.41,-13.194 1146.43,-19.334C1148.44,-25.475 1151.11,-30.701 1154.44,-35.014C1157.77,-39.326 1161.54,-42.842 1165.76,-45.561C1169.98,-48.28 1174.27,-50.436 1178.63,-52.03C1182.99,-53.623 1187.23,-54.701 1191.36,-55.264C1195.48,-55.826 1199.09,-56.108 1202.18,-56.108C1208.84,-56.108 1214.75,-55.616 1219.9,-54.631C1225.06,-53.647 1229.37,-52.334 1232.84,-50.694C1236.31,-49.053 1238.93,-47.155 1240.72,-44.998C1242.5,-42.842 1243.39,-40.639 1243.39,-38.389C1243.39,-36.701 1243.13,-34.991 1242.61,-33.256C1242.1,-31.522 1241.37,-29.928 1240.43,-28.475C1239.5,-27.022 1238.35,-25.85 1236.99,-24.959C1235.63,-24.069 1234.11,-23.623 1232.42,-23.623C1231.39,-23.623 1230.45,-24.186 1229.61,-25.311C1228.76,-26.436 1227.87,-27.842 1226.93,-29.53C1226,-31.217 1224.97,-33.045 1223.84,-35.014C1222.72,-36.983 1221.33,-38.811 1219.69,-40.498C1218.05,-42.186 1216.11,-43.592 1213.86,-44.717C1211.61,-45.842 1208.93,-46.405 1205.84,-46.405Z" style="fill-rule:nonzero;"/>
            <path d="M1395.83,137.674C1395.83,139.83 1396.04,141.869 1396.46,143.791C1396.88,145.713 1397.72,147.377 1398.99,148.783C1400.26,150.189 1401.99,151.314 1404.19,152.158C1406.4,153.002 1409.28,153.424 1412.84,153.424C1418,153.424 1422.73,151.947 1427.04,148.994C1431.36,146.041 1435.06,142.244 1438.15,137.603C1441.25,132.963 1443.64,127.759 1445.33,121.994C1447.01,116.228 1447.86,110.486 1447.86,104.767C1447.86,96.236 1446.71,88.713 1444.41,82.197C1442.11,75.681 1438.9,70.174 1434.78,65.674C1430.65,61.174 1425.78,57.681 1420.15,55.197C1414.53,52.713 1408.43,51.283 1401.87,50.908L1404.68,43.736C1408.81,43.924 1412.75,43.361 1416.5,42.049C1420.25,40.736 1423.55,38.439 1426.41,35.158C1429.27,31.877 1431.54,27.447 1433.23,21.869C1434.92,16.291 1435.76,9.283 1435.76,0.845C1435.76,-4.873 1435.06,-10.03 1433.65,-14.623C1432.25,-19.217 1430.4,-23.084 1428.1,-26.225C1425.8,-29.366 1423.13,-31.78 1420.08,-33.467C1417.04,-35.155 1413.92,-35.998 1410.73,-35.998C1408.76,-35.998 1406.86,-35.764 1405.04,-35.295C1403.21,-34.826 1401.61,-34.03 1400.26,-32.905C1398.9,-31.78 1397.82,-30.303 1397.02,-28.475C1396.22,-26.647 1395.83,-24.373 1395.83,-21.655L1395.83,137.674ZM1398.64,-47.53C1425.83,-47.53 1445.82,-43.287 1458.61,-34.803C1471.41,-26.319 1477.81,-13.967 1477.81,2.252C1477.81,6.283 1477.36,9.986 1476.47,13.361C1475.58,16.736 1474.43,19.806 1473.03,22.572C1471.62,25.338 1470.03,27.799 1468.25,29.955C1466.47,32.111 1464.64,33.986 1462.76,35.58C1458.36,39.424 1453.39,42.424 1447.86,44.58L1447.86,46.689C1456.58,47.72 1464.4,50.345 1471.34,54.564C1474.25,56.345 1477.11,58.572 1479.92,61.244C1482.73,63.916 1485.24,67.15 1487.44,70.947C1489.65,74.744 1491.43,79.15 1492.79,84.166C1494.15,89.181 1494.83,94.924 1494.83,101.392C1494.83,111.236 1493.04,120.095 1489.48,127.97C1485.92,135.845 1480.62,142.525 1473.59,148.009C1466.56,153.494 1457.79,157.689 1447.29,160.595C1436.79,163.502 1424.61,164.955 1410.73,164.955C1397.89,164.955 1387.43,164.158 1379.37,162.564C1371.31,160.97 1365.03,158.65 1360.53,155.603C1356.03,152.556 1352.96,148.877 1351.32,144.564C1349.68,140.252 1348.86,135.377 1348.86,129.939L1348.86,-23.905C1348.86,-29.061 1345.29,-31.639 1338.17,-31.639C1333.01,-31.639 1327.79,-30.866 1322.49,-29.319C1317.19,-27.772 1312.41,-25.662 1308.15,-22.991C1303.88,-20.319 1300.39,-17.131 1297.67,-13.428C1294.95,-9.725 1293.59,-5.717 1293.59,-1.405C1293.59,1.595 1293.99,3.986 1294.79,5.767C1295.58,7.549 1296.5,8.884 1297.53,9.775C1298.56,10.666 1299.61,11.228 1300.69,11.463C1301.77,11.697 1302.54,11.814 1303.01,11.814C1305.36,11.814 1307.28,11.416 1308.78,10.619C1310.28,9.822 1311.64,8.978 1312.86,8.088C1314.08,7.197 1315.22,6.353 1316.3,5.556C1317.38,4.759 1318.62,4.361 1320.03,4.361C1321.15,4.361 1322.35,4.619 1323.61,5.134C1324.88,5.65 1326.05,6.47 1327.13,7.595C1328.21,8.72 1329.12,10.197 1329.87,12.025C1330.62,13.853 1331,16.08 1331,18.705C1331,22.455 1330.27,25.689 1328.82,28.408C1327.36,31.127 1325.49,33.4 1323.19,35.228C1320.9,37.056 1318.27,38.416 1315.32,39.306C1312.36,40.197 1309.43,40.642 1306.53,40.642C1302.03,40.642 1297.97,39.869 1294.36,38.322C1290.76,36.775 1287.68,34.642 1285.15,31.924C1282.62,29.205 1280.7,26.017 1279.39,22.361C1278.08,18.705 1277.42,14.814 1277.42,10.689C1277.42,2.908 1278.87,-3.959 1281.78,-9.912C1284.68,-15.866 1288.79,-20.998 1294.08,-25.311C1299.38,-29.623 1305.73,-33.209 1313.14,-36.069C1320.54,-38.928 1328.75,-41.201 1337.75,-42.889C1346.75,-44.576 1356.38,-45.772 1366.65,-46.475C1376.91,-47.178 1387.58,-47.53 1398.64,-47.53Z" style="fill-rule:nonzero;"/>
            <path d="M1564.58,150.33C1564.58,151.549 1564.36,153.002 1563.94,154.689C1563.52,156.377 1562.54,157.97 1560.99,159.47C1559.44,160.97 1557.19,162.259 1554.24,163.338C1551.29,164.416 1547.33,164.955 1542.36,164.955C1537.39,164.955 1533.5,164.369 1530.68,163.197C1527.87,162.025 1525.79,160.642 1524.43,159.049C1523.07,157.455 1522.22,155.814 1521.9,154.127C1521.57,152.439 1521.4,151.08 1521.4,150.049L1521.4,-31.358C1521.4,-34.076 1520.77,-36.444 1519.51,-38.459C1518.24,-40.475 1516.11,-41.483 1513.11,-41.483C1511.51,-41.483 1510.13,-41.225 1508.96,-40.709C1507.79,-40.194 1506.54,-39.42 1505.23,-38.389L1502.42,-41.764C1504.58,-43.545 1506.97,-45.303 1509.59,-47.037C1512.22,-48.772 1515.1,-50.295 1518.24,-51.608C1521.38,-52.92 1524.73,-53.998 1528.29,-54.842C1531.86,-55.686 1535.61,-56.108 1539.54,-56.108C1545.64,-56.108 1550.37,-55.287 1553.75,-53.647C1557.12,-52.006 1559.61,-49.991 1561.2,-47.6C1562.79,-45.209 1563.76,-42.678 1564.08,-40.006C1564.41,-37.334 1564.58,-34.967 1564.58,-32.905L1564.58,150.33Z" style="fill-rule:nonzero;"/>
            <path d="M1663.29,89.861C1663.29,87.517 1662.54,85.736 1661.04,84.517C1659.54,83.299 1657.62,82.689 1655.28,82.689C1652,82.689 1648.88,83.439 1645.93,84.939C1642.97,86.439 1640.37,88.642 1638.12,91.549C1635.87,94.455 1634.09,98.041 1632.78,102.306C1631.47,106.572 1630.81,111.517 1630.81,117.142C1630.81,122.58 1631.21,127.08 1632.01,130.642C1632.8,134.205 1633.88,137.041 1635.24,139.15C1636.6,141.259 1638.17,142.736 1639.95,143.58C1641.73,144.424 1643.61,144.845 1645.58,144.845C1648.01,144.845 1650.31,144.213 1652.47,142.947C1654.62,141.681 1656.5,140.064 1658.09,138.095C1659.68,136.127 1660.95,133.924 1661.89,131.486C1662.83,129.049 1663.29,126.611 1663.29,124.174L1663.29,89.861ZM1640.93,28.267C1637.75,28.267 1634.79,28.642 1632.08,29.392C1629.36,30.142 1627.01,31.08 1625.04,32.205C1623.08,33.33 1621.53,34.572 1620.4,35.931C1619.28,37.291 1618.72,38.58 1618.72,39.799C1618.72,41.205 1619.44,42.213 1620.9,42.822C1622.35,43.431 1623.97,44.134 1625.75,44.931C1627.53,45.728 1629.15,46.853 1630.6,48.306C1632.05,49.759 1632.78,51.986 1632.78,54.986C1632.78,56.955 1632.38,58.759 1631.58,60.4C1630.79,62.041 1629.71,63.494 1628.35,64.759C1626.99,66.025 1625.4,67.009 1623.57,67.713C1621.74,68.416 1619.84,68.767 1617.87,68.767C1612.62,68.767 1608.38,66.986 1605.15,63.424C1601.91,59.861 1600.29,55.127 1600.29,49.22C1600.29,43.502 1601.79,38.603 1604.79,34.525C1607.79,30.447 1611.71,27.095 1616.54,24.47C1621.36,21.845 1626.83,19.9 1632.92,18.634C1639.01,17.369 1645.11,16.736 1651.2,16.736C1658.51,16.736 1665.5,17.533 1672.15,19.127C1678.81,20.72 1684.69,23.252 1689.8,26.72C1694.91,30.189 1698.99,34.595 1702.04,39.939C1705.08,45.283 1706.61,51.752 1706.61,59.345L1706.61,138.799C1706.61,139.642 1706.65,140.58 1706.75,141.611C1706.84,142.642 1707.08,143.58 1707.45,144.424C1707.83,145.267 1708.39,145.97 1709.14,146.533C1709.89,147.095 1710.97,147.377 1712.37,147.377C1714.06,147.377 1715.63,146.744 1717.08,145.478C1718.54,144.213 1719.83,142.924 1720.95,141.611L1724.47,144.564C1723.06,146.533 1721.37,148.689 1719.4,151.033C1717.43,153.377 1715.04,155.58 1712.23,157.642C1709.42,159.705 1706.14,161.439 1702.39,162.845C1698.64,164.252 1694.37,164.955 1689.59,164.955C1683.68,164.955 1678.43,163.197 1673.84,159.681C1669.25,156.166 1666.25,150.752 1664.84,143.439C1661.84,147.47 1658.72,150.845 1655.49,153.564C1652.26,156.283 1648.95,158.486 1645.58,160.174C1642.2,161.861 1638.8,163.08 1635.38,163.83C1631.96,164.58 1628.51,164.955 1625.04,164.955C1620.54,164.955 1616.18,164.252 1611.97,162.845C1607.75,161.439 1603.97,159.213 1600.65,156.166C1597.32,153.119 1594.65,149.158 1592.63,144.283C1590.61,139.408 1589.61,133.455 1589.61,126.424C1589.61,117.892 1591.29,110.908 1594.67,105.47C1598.04,100.033 1602.47,95.463 1607.96,91.759C1613.44,88.056 1619.68,84.892 1626.66,82.267C1633.65,79.642 1640.79,76.877 1648.11,73.97C1653.54,71.814 1657.51,68.603 1659.99,64.338C1662.47,60.072 1663.72,55.689 1663.72,51.189C1663.72,44.252 1661.68,38.697 1657.6,34.525C1653.52,30.353 1647.97,28.267 1640.93,28.267Z" style="fill-rule:nonzero;"/>
            <path d="M1821.5,86.345L1821.5,80.088C1821.5,76.947 1821.4,73.338 1821.22,69.259C1821.03,65.181 1820.7,60.845 1820.23,56.252C1819.76,51.658 1819.01,47.392 1817.98,43.455C1815.73,40.549 1813.22,37.947 1810.46,35.65C1807.69,33.353 1804.15,32.205 1799.84,32.205C1792.53,32.205 1787.16,36.986 1783.74,46.549C1780.32,56.111 1778.61,70.924 1778.61,90.986C1778.61,99.799 1779.01,107.861 1779.8,115.174C1780.6,122.486 1781.82,128.767 1783.46,134.017C1785.1,139.267 1787.21,143.345 1789.79,146.252C1792.36,149.158 1795.43,150.611 1799,150.611C1814,150.611 1821.5,129.189 1821.5,86.345ZM1819.81,24.47C1818.03,15.095 1815.54,6.353 1812.36,-1.756C1809.17,-9.866 1805.35,-16.873 1800.9,-22.78C1796.44,-28.686 1791.38,-33.326 1785.71,-36.701C1780.04,-40.076 1773.92,-41.764 1767.36,-41.764C1763.61,-41.764 1760.21,-41.295 1757.16,-40.358C1754.11,-39.42 1751.47,-38.319 1749.22,-37.053C1746.97,-35.787 1745.11,-34.569 1743.66,-33.397C1742.21,-32.225 1741.15,-31.358 1740.5,-30.795L1736.84,-35.717C1739.09,-38.623 1741.83,-41.342 1745.07,-43.873C1748.3,-46.405 1751.84,-48.561 1755.68,-50.342C1759.53,-52.123 1763.58,-53.53 1767.85,-54.561C1772.11,-55.592 1776.36,-56.108 1780.58,-56.108C1794.45,-56.108 1806.64,-53.084 1817.14,-47.037C1827.64,-40.991 1836.4,-32.436 1843.43,-21.373C1850.47,-10.311 1855.76,3.049 1859.33,18.705C1862.89,34.361 1864.67,51.752 1864.67,70.877C1864.67,86.345 1863.1,99.939 1859.96,111.658C1856.82,123.377 1852.34,133.197 1846.53,141.119C1840.72,149.041 1833.66,154.994 1825.36,158.978C1817.07,162.963 1807.72,164.955 1797.31,164.955C1790.09,164.955 1782.76,163.666 1775.3,161.088C1767.85,158.509 1761.1,154.314 1755.05,148.502C1749.01,142.689 1744.06,135.072 1740.22,125.65C1736.37,116.228 1734.45,104.674 1734.45,90.986C1734.45,79.174 1736.11,68.674 1739.44,59.486C1742.77,50.299 1747.25,42.541 1752.87,36.213C1758.5,29.884 1765.01,25.056 1772.42,21.728C1779.83,18.4 1787.65,16.736 1795.9,16.736C1799.09,16.736 1801.95,16.994 1804.48,17.509C1807.01,18.025 1809.22,18.658 1811.09,19.408C1812.97,20.158 1814.61,20.978 1816.01,21.869C1817.42,22.759 1818.68,23.627 1819.81,24.47Z" style="fill-rule:nonzero;"/>
            <path d="M1927.81,98.158C1927.81,101.158 1928.26,104.416 1929.15,107.931C1930.04,111.447 1931.33,114.986 1933.01,118.549C1934.7,122.111 1936.79,125.509 1939.27,128.744C1941.76,131.978 1944.61,134.861 1947.85,137.392C1951.08,139.924 1954.67,141.939 1958.61,143.439C1962.54,144.939 1966.86,145.689 1971.54,145.689C1974.83,145.689 1977.87,145.314 1980.68,144.564C1983.5,143.814 1986.12,142.783 1988.56,141.47C1991,140.158 1993.34,138.634 1995.59,136.9C1997.84,135.166 2000.09,133.314 2002.34,131.345L2005.86,134.72C2003.7,137.627 2000.93,140.814 1997.56,144.283C1994.18,147.752 1990.11,151.009 1985.33,154.056C1980.54,157.103 1974.97,159.634 1968.59,161.65C1962.22,163.666 1954.95,164.674 1946.79,164.674C1938.64,164.674 1930.69,163.197 1922.96,160.244C1915.22,157.291 1908.36,152.861 1902.36,146.955C1896.36,141.049 1891.55,133.689 1887.94,124.877C1884.33,116.064 1882.53,105.752 1882.53,93.939C1882.53,85.408 1883.61,77.58 1885.76,70.455C1887.92,63.33 1890.85,56.908 1894.55,51.189C1898.26,45.47 1902.57,40.455 1907.49,36.142C1912.41,31.83 1917.59,28.244 1923.03,25.384C1928.47,22.525 1934.02,20.369 1939.69,18.916C1945.36,17.463 1950.83,16.736 1956.08,16.736C1963.01,16.736 1969.06,17.486 1974.22,18.986C1979.37,20.486 1983.66,22.502 1987.08,25.033C1990.51,27.564 1993.06,30.494 1994.75,33.822C1996.43,37.15 1997.28,40.642 1997.28,44.299C1997.28,48.705 1996.01,52.666 1993.48,56.181C1990.95,59.697 1987.58,62.767 1983.36,65.392L1927.81,98.158ZM1956.08,69.611C1957.29,68.861 1958.3,68.134 1959.1,67.431C1959.9,66.728 1960.53,65.884 1961,64.9C1961.47,63.916 1961.82,62.697 1962.05,61.244C1962.29,59.791 1962.4,57.986 1962.4,55.83C1962.4,53.486 1962.15,50.884 1961.63,48.025C1961.11,45.166 1960.25,42.47 1959.03,39.939C1957.81,37.408 1956.26,35.299 1954.39,33.611C1952.51,31.924 1950.26,31.08 1947.64,31.08C1944.26,31.08 1941.38,32.088 1938.99,34.103C1936.6,36.119 1934.63,38.72 1933.08,41.908C1931.54,45.095 1930.32,48.728 1929.43,52.806C1928.54,56.884 1927.86,60.986 1927.39,65.111C1926.92,69.236 1926.64,73.197 1926.54,76.994C1926.45,80.791 1926.4,84.002 1926.4,86.627L1956.08,69.611Z" style="fill-rule:nonzero;"/>
            <path d="M2069.98,27.986C2067.82,27.986 2065.79,28.267 2063.86,28.83C2061.94,29.392 2060.23,30.306 2058.73,31.572C2057.23,32.838 2056.06,34.431 2055.22,36.353C2054.37,38.275 2053.95,40.549 2053.95,43.174C2053.95,46.83 2055.29,50.463 2057.96,54.072C2060.63,57.681 2063.96,61.431 2067.94,65.322C2071.93,69.213 2076.24,73.244 2080.88,77.416C2085.52,81.588 2089.83,85.994 2093.82,90.634C2097.8,95.275 2101.13,100.22 2103.8,105.47C2106.47,110.72 2107.81,116.345 2107.81,122.345C2107.81,129.095 2106.66,135.095 2104.36,140.345C2102.07,145.595 2098.79,150.049 2094.52,153.705C2090.26,157.361 2085.1,160.15 2079.05,162.072C2073.01,163.994 2066.28,164.955 2058.87,164.955C2052.4,164.955 2046.54,164.041 2041.29,162.213C2036.04,160.384 2031.38,158.134 2027.3,155.463C2023.22,152.791 2019.73,149.955 2016.83,146.955C2013.92,143.955 2011.67,141.236 2010.08,138.799L2015,135.283C2016.22,136.689 2017.76,138.213 2019.64,139.853C2021.51,141.494 2023.6,143.017 2025.9,144.424C2028.19,145.83 2030.65,146.978 2033.28,147.869C2035.9,148.759 2038.58,149.205 2041.29,149.205C2048.04,149.205 2053.57,147.588 2057.89,144.353C2062.2,141.119 2064.36,136.314 2064.36,129.939C2064.36,126.377 2063.18,122.697 2060.84,118.9C2058.5,115.103 2055.54,111.189 2051.98,107.158C2048.42,103.127 2044.58,98.955 2040.45,94.642C2036.33,90.33 2032.48,85.877 2028.92,81.283C2025.36,76.689 2022.4,71.955 2020.06,67.08C2017.72,62.205 2016.54,57.142 2016.54,51.892C2016.54,45.986 2017.74,40.83 2020.13,36.424C2022.52,32.017 2025.71,28.361 2029.69,25.455C2033.68,22.549 2038.22,20.369 2043.33,18.916C2048.44,17.463 2053.72,16.736 2059.15,16.736C2065.43,16.736 2071.15,17.299 2076.31,18.424C2081.47,19.549 2085.9,21.259 2089.6,23.556C2093.3,25.853 2096.16,28.736 2098.18,32.205C2100.19,35.674 2101.2,39.705 2101.2,44.299C2101.2,47.861 2100.03,50.955 2097.68,53.58C2095.34,56.205 2092.06,57.517 2087.84,57.517C2083.81,57.517 2080.74,56.65 2078.63,54.916C2076.52,53.181 2075.47,50.814 2075.47,47.814C2075.47,45.845 2075.96,44.299 2076.94,43.174C2077.93,42.049 2079.03,41.134 2080.25,40.431C2081.47,39.728 2082.57,39.119 2083.55,38.603C2084.54,38.088 2085.03,37.408 2085.03,36.564C2085.03,33.939 2083.62,31.853 2080.81,30.306C2078,28.759 2074.39,27.986 2069.98,27.986Z" style="fill-rule:nonzero;"/>
        </g>
        <g transform="matrix(1.00922,0,0,1.00922,520.736,403.428)">
            <g transform="matrix(5.00145,0,0,5.00145,-1080.36,-900.918)">
                <g transform="matrix(2.2936,-4.10685e-15,0,3.12334,-504.606,-759.995)">
                    <path d="M371.18,345.479C371.18,345.479 365.449,350.695 359.59,350.695C352.594,350.695 346.914,345.169 346.914,338.362C346.914,332.092 353.168,327.589 357.669,324.562C362.352,321.412 374.841,301.001 374.841,301.001C374.841,301.001 384.621,319.811 390.606,324.415C394.839,327.672 402.746,332.096 402.746,338.362C402.746,345.169 397.071,350.695 390.081,350.695C384.228,350.695 377.471,345.479 377.471,345.479L389.104,364.409L360.579,364.409"/>
                </g>
                <g transform="matrix(-0.270309,-3.31033e-17,3.53948e-17,-0.289021,493.97,430.238)">
                    <path d="M514.414,180.131C514.414,180.131 518.874,209.811 525.793,226.615C531.054,239.39 533.934,239.988 542.061,256.86C554.275,282.221 514.345,258.314 544.786,378.409C547.214,387.988 582.231,389.983 573.249,392.074C548.371,397.865 513.374,423.961 513.374,423.961C513.374,423.961 490.542,402.709 454.146,392.074C445.484,389.543 479.942,389.711 482.691,379.348C514.114,260.908 470.828,276.348 485.373,255.721C486.528,254.083 496.415,242.574 503.034,226.305C511.207,206.219 514.414,180.131 514.414,180.131ZM503.034,392.002L513.374,400.189L525.793,392.029L513.374,383.958L503.034,392.002Z" style="fill:white;"/>
                </g>
                <g transform="matrix(-0.270309,-3.31033e-17,3.53948e-17,-0.289021,493.882,430.238)">
                    <path d="M408.163,387.938C407.611,387.766 428.417,381.468 430.07,386.897C436.08,406.633 499.555,427.664 514.414,451.455C515.365,452.977 513.464,452.612 514.414,451.455C527.299,435.755 585.354,410.224 597.419,388.453C598.876,385.825 620.189,388.34 618.584,388.802C580.944,399.659 579.788,458.547 579.788,458.547C579.788,458.547 575.02,435.915 571.846,437.125C539.894,449.315 548.43,476.925 548.43,476.925L571.846,466.788C571.846,466.788 521.757,491.33 514.414,539.842C514.192,541.308 514.414,836.343 514.414,836.343L539.364,723.218C539.364,723.218 539.468,525.506 538.725,523.5C536.578,517.697 522.411,558.092 522.411,558.092C522.411,558.092 520.935,523.567 548.599,493.459C549.865,492.081 547.961,722.612 547.961,722.612L513.736,865.36L478.089,723.458C478.089,723.458 479.544,458.073 479.041,456.476C476.276,447.693 462.636,438.041 458.255,438.284C453.873,438.527 452.753,457.934 452.753,457.934C452.753,457.934 447.925,400.336 408.163,387.938Z" style="fill:white;"/>
                </g>
            </g>
            <g transform="matrix(9.25529,0,0,11.9443,-2657.29,-2626.63)">
                <path d="M308.372,219.907L316.824,219.93L335.007,294.371L338.646,294.858L338.71,302.703L320.068,302.835L320.41,294.061L323.795,293.833L321.045,282.333L304.928,282.267L302.815,294.5L306.729,294.921L306.446,302.782L287.402,302.7L287.11,294.463L291.891,294.458L308.372,219.907ZM312.91,243.235L306.538,272.495L319.107,272.343L312.91,243.235Z"/>
            </g>
        </g>
    </g>
</svg>
