<?xml version="1.0" encoding="UTF-8" standalone="no"?>
<!DOCTYPE svg PUBLIC "-//W3C//DTD SVG 1.1//EN" "http://www.w3.org/Graphics/SVG/1.1/DTD/svg11.dtd">
<svg width="100%" height="100%" viewBox="0 0 2048 1536" version="1.1" xmlns="http://www.w3.org/2000/svg" xmlns:xlink="http://www.w3.org/1999/xlink" xml:space="preserve" xmlns:serif="http://www.serif.com/" style="fill-rule:evenodd;clip-rule:evenodd;stroke-linejoin:round;stroke-miterlimit:2;">
    <rect id="Artboard1" x="0" y="0" width="2048" height="1536" style="fill:none;"/>
    <clipPath id="_clip1">
        <rect id="Artboard11" serif:id="Artboard1" x="0" y="0" width="2048" height="1536"/>
    </clipPath>
    <g clip-path="url(#_clip1)">
        <rect x="-9.464" y="0" width="2078.99" height="1561.29" style="fill:rgb(235,235,235);"/>
        <g transform="matrix(1,0,0,1,-221.552,234.796)">
            <g transform="matrix(288,0,0,288,2116.39,162.705)">
            </g>
            <text x="425.091px" y="162.705px" style="font-family:'BerkshireSwash-Regular', 'Berkshire Swash';font-size:288px;">Ace of Blades</text>
        </g>
        <g transform="matrix(1.00922,0,0,1.00922,520.736,403.428)">
            <g transform="matrix(5.00145,0,0,5.00145,-1080.36,-900.918)">
                <g transform="matrix(2.2936,-4.10685e-15,0,3.12334,-504.606,-759.995)">
                    <path d="M371.18,345.479C371.18,345.479 365.449,350.695 359.59,350.695C352.594,350.695 346.914,345.169 346.914,338.362C346.914,332.092 353.168,327.589 357.669,324.562C362.352,321.412 374.841,301.001 374.841,301.001C374.841,301.001 384.621,319.811 390.606,324.415C394.839,327.672 402.746,332.096 402.746,338.362C402.746,345.169 397.071,350.695 390.081,350.695C384.228,350.695 377.471,345.479 377.471,345.479L389.104,364.409L360.579,364.409"/>
                </g>
                <g transform="matrix(-0.270309,-3.31033e-17,3.53948e-17,-0.289021,493.97,430.238)">
                    <path d="M514.414,180.131C514.414,180.131 518.874,209.811 525.793,226.615C531.054,239.39 533.934,239.988 542.061,256.86C554.275,282.221 514.345,258.314 544.786,378.409C547.214,387.988 582.231,389.983 573.249,392.074C548.371,397.865 513.374,423.961 513.374,423.961C513.374,423.961 490.542,402.709 454.146,392.074C445.484,389.543 479.942,389.711 482.691,379.348C514.114,260.908 470.828,276.348 485.373,255.721C486.528,254.083 496.415,242.574 503.034,226.305C511.207,206.219 514.414,180.131 514.414,180.131ZM503.034,392.002L513.374,400.189L525.793,392.029L513.374,383.958L503.034,392.002Z" style="fill:white;"/>
                </g>
                <g transform="matrix(-0.270309,-3.31033e-17,3.53948e-17,-0.289021,493.882,430.238)">
                    <path d="M408.163,387.938C407.611,387.766 428.417,381.468 430.07,386.897C436.08,406.633 499.555,427.664 514.414,451.455C515.365,452.977 513.464,452.612 514.414,451.455C527.299,435.755 585.354,410.224 597.419,388.453C598.876,385.825 620.189,388.34 618.584,388.802C580.944,399.659 579.788,458.547 579.788,458.547C579.788,458.547 575.02,435.915 571.846,437.125C539.894,449.315 548.43,476.925 548.43,476.925L571.846,466.788C571.846,466.788 521.757,491.33 514.414,539.842C514.192,541.308 514.414,836.343 514.414,836.343L539.364,723.218C539.364,723.218 539.468,525.506 538.725,523.5C536.578,517.697 522.411,558.092 522.411,558.092C522.411,558.092 520.935,523.567 548.599,493.459C549.865,492.081 547.961,722.612 547.961,722.612L513.736,865.36L478.089,723.458C478.089,723.458 479.544,458.073 479.041,456.476C476.276,447.693 462.636,438.041 458.255,438.284C453.873,438.527 452.753,457.934 452.753,457.934C452.753,457.934 447.925,400.336 408.163,387.938Z" style="fill:white;"/>
                </g>
            </g>
            <g transform="matrix(9.25529,0,0,11.9443,-2657.29,-2626.63)">
                <path d="M308.372,219.907L316.824,219.93L335.007,294.371L338.646,294.858L338.71,302.703L320.068,302.835L320.41,294.061L323.795,293.833L321.045,282.333L304.928,282.267L302.815,294.5L306.729,294.921L306.446,302.782L287.402,302.7L287.11,294.463L291.891,294.458L308.372,219.907ZM312.91,243.235L306.538,272.495L319.107,272.343L312.91,243.235Z"/>
            </g>
        </g>
    </g>
</svg>
